<svg id="Layer_1" data-name="Layer 1" xmlns="http://www.w3.org/2000/svg" viewBox="0 0 800.1 799.97"><defs><style>.cls-1{fill:#fff;}</style></defs><title>codepen</title><path class="cls-1" d="M96.43,521.87l269.2,179.46V541.07L216.5,441.53ZM68.73,457.6,154.9,400,68.73,342.4ZM434.37,701.33l269.2-179.46-120-80.34-149.2,99.54ZM400,481.27,521.43,400,400,318.73,278.57,400ZM216.5,358.6l149.13-99.67V98.67L96.43,278.13ZM645.1,400l86.17,57.6V342.4Zm-61.6-41.53,120-80.34L434.37,98.67V258.93ZM800,278.13V522.87a32.61,32.61,0,0,1-15.07,27.5l-.13.06L419.17,794.2a34.74,34.74,0,0,1-38.54-.07l.14.07L15.13,550.47A32.64,32.64,0,0,1-.07,522.9a9.57,9.57,0,0,1,0-1.07V277.13A32.63,32.63,0,0,1,15,249.63l.14-.06L380.8,5.83a34.72,34.72,0,0,1,38.53.07l-.13-.07L784.83,249.57A32.61,32.61,0,0,1,800,277.13c0,.37,0,.7,0,1.07Z" transform="translate(0.07 -0.03)"/></svg>